<svg width="24" height="24" viewBox="0 0 24 24" fill="none" xmlns="http://www.w3.org/2000/svg">
<path d="M17.7074 0.622701C13.7678 -0.849719 9.19902 0.35492 6.54529 3.54063C3.34439 7.42228 4.00108 12.4284 6.79166 15.7212C4.60296 17.8895 2.41426 20.0312 0.225712 22.1728C-0.0752372 22.4673 -0.0752372 22.976 0.225712 23.2705L0.745564 23.7791C1.04651 24.0736 1.56636 24.0736 1.8673 23.7791C4.08325 21.6108 6.27195 19.4691 8.48796 17.3007C10.4851 18.7731 13.0568 19.5226 15.902 19.0407C20.6076 18.2375 23.8906 14.1952 24 9.59073C23.8905 5.62857 21.5102 2.06825 17.7076 0.622653L17.7074 0.622701ZM14.1783 17.6219C9.69157 17.6219 5.97086 13.9544 5.97086 9.59078C5.97086 5.20044 9.71888 1.53289 14.1783 1.55966C18.7471 1.55966 22.3037 5.20044 22.3857 9.59078C22.2762 13.9811 18.7471 17.6219 14.1783 17.6219Z" fill="white"/>
<path d="M14.7527 4.2367H13.3848V8.92152H8.81601V10.26H13.3848V14.9449H14.7527V10.26H19.7593V8.92152H14.7527V4.2367Z" fill="white"/>
</svg>
