<svg width="28" height="28" viewBox="0 0 28 28" fill="none" xmlns="http://www.w3.org/2000/svg">
<path d="M28 1.24271C28 0.556382 27.4436 0 26.7572 0H21.1692C20.8195 0 20.4843 0.138953 20.2371 0.386114C19.9899 0.633274 19.851 0.968417 19.851 1.31792C19.851 1.66763 19.9899 2.0028 20.2371 2.24994C20.4843 2.4971 20.8195 2.63605 21.1692 2.63605H23.4991L16.8345 9.30049C16.5891 9.54805 16.4518 9.88279 16.4524 10.2313C16.4532 10.58 16.592 10.914 16.8385 11.1605C17.0851 11.4068 17.4191 11.5456 17.7678 11.5464C18.1163 11.5472 18.4509 11.4099 18.6985 11.1645L25.3636 4.49957V6.83184C25.3636 7.18135 25.5024 7.51672 25.7498 7.76386C25.9969 8.01102 26.3321 8.14997 26.6819 8.14997C27.0314 8.14997 27.3666 8.01102 27.6138 7.76386C27.861 7.5167 27.9999 7.18135 27.9999 6.83184L28 1.24271Z" fill="white"/>
<path d="M11.1656 16.8327C10.9184 16.5856 10.5831 16.4468 10.2335 16.4468C9.88397 16.4468 9.54857 16.5856 9.30141 16.8327L2.63631 23.4992V21.167C2.63631 20.8175 2.49735 20.4821 2.25016 20.235C2.00298 19.9878 1.6678 19.8488 1.31805 19.8488C0.968513 19.8488 0.633316 19.9878 0.386152 20.235C0.138967 20.4821 0 20.8175 0 21.167V26.7565C0 27.4428 0.556426 27.9992 1.24281 27.9992H6.82977C7.17931 27.9992 7.51471 27.8602 7.76187 27.6133C8.00906 27.3661 8.14803 27.0307 8.14803 26.6812C8.14803 26.3315 8.00906 25.9964 7.76187 25.7492C7.51469 25.5021 7.17931 25.3631 6.82977 25.3631H4.49929L11.1654 18.6966C11.4126 18.4492 11.5514 18.1141 11.5514 17.7646C11.5514 17.4151 11.4126 17.0797 11.1654 16.8326L11.1656 16.8327Z" fill="white"/>
<path d="M19.8508 26.6821C19.8508 27.0316 19.9898 27.3667 20.237 27.6141C20.4841 27.861 20.8193 28 21.1691 28H26.756C27.4424 28 27.9988 27.4436 27.9988 26.7573V21.1673C27.9988 20.8178 27.8599 20.4824 27.6127 20.2353C27.3657 19.9881 27.0303 19.8492 26.6808 19.8492C26.331 19.8492 25.9958 19.9881 25.7487 20.2353C25.5015 20.4824 25.3625 20.8178 25.3625 21.1673V23.4987L18.6979 16.8327C18.4503 16.5874 18.1158 16.4501 17.7672 16.4509C17.4185 16.4515 17.0845 16.5904 16.838 16.8368C16.5914 17.0833 16.4526 17.4173 16.4518 17.7659C16.4512 18.1144 16.5886 18.4492 16.8339 18.6968L23.5001 25.3638H21.1687C20.819 25.3638 20.4838 25.5027 20.2366 25.7499C19.9895 25.9971 19.8505 26.3322 19.8505 26.6819L19.8508 26.6821Z" fill="white"/>
<path d="M11.1656 9.30049L4.50001 2.63605H6.82987C7.17941 2.63605 7.51481 2.4971 7.76198 2.24994C8.00916 2.00278 8.14813 1.66764 8.14813 1.31792C8.14813 0.968417 8.00916 0.633253 7.76198 0.386114C7.51479 0.138953 7.17941 0 6.82987 0H1.24292C0.55653 0 0.000103511 0.55637 0.000103511 1.24269V6.8322C0.000103511 7.1817 0.139071 7.51707 0.386255 7.76421C0.63344 8.01137 0.968616 8.15033 1.31816 8.15033C1.6679 8.15033 2.0031 8.01137 2.25027 7.76421C2.49745 7.51705 2.63642 7.1817 2.63642 6.8322V4.49993L9.30151 11.1649C9.5491 11.4102 9.88387 11.5476 10.2324 11.5467C10.5812 11.5459 10.9151 11.4072 11.1617 11.1608C11.4081 10.9143 11.5468 10.5803 11.5476 10.2317C11.5484 9.88317 11.4111 9.54845 11.1657 9.30084L11.1656 9.30049Z" fill="white"/>
</svg>
